# xmcd CD database file
#
# Track frame offsets:
#	150
#	15620
#	31465
#	49372
#	63185
#	83282
#	103987
#	124015
#	144950
#	162484
#	181567
#	199415
#	216440
#	240852
#	259367
#	278587
#	292397
#	309255
#
# Disc length: 4349 seconds
#
# Revision: 0
# Processed by: cddbd v1.4PL0 Copyright (c) Steve Scherf et al.
# Submitted via: Feurio! 1.65 - http://www.feurio.com
#
DISCID=0210fb12
DTITLE=Nicole - Streicheleinheiten Die schˆnsten Balladen
DYEAR=1900
DGENRE=Blues
TTITLE0=Wenn ich singe
TTITLE1=Ich hab dich geliebt
TTITLE2=Wie weit die Liebe geht
TTITLE3=Wenn du glaubst
TTITLE4=Dein Licht in mir
TTITLE5=Nie mehr ohne dich
TTITLE6=So wie du
TTITLE7=Und keiner weiﬂ, daﬂ wir uns lieben
TTITLE8=Johnny (Nur noch einen Tag)
TTITLE9=Und ich denke schon wieder an dich
TTITLE10=Lieb mich nicht so
TTITLE11=Marie Clair
TTITLE12=Schlaf nicht wieder ein
TTITLE13=Mehr als nur zusammen schlafen gehen
TTITLE14=So viele Lieder sind in mir
TTITLE15=Ein biﬂchen Frieden
TTITLE16=Song For The World
TTITLE17=Es gibt ein Wiedersehen
EXTD=
EXTT0=
EXTT1=
EXTT2=
EXTT3=
EXTT4=
EXTT5=
EXTT6=
EXTT7=
EXTT8=
EXTT9=
EXTT10=
EXTT11=
EXTT12=
EXTT13=
EXTT14=
EXTT15=
EXTT16=
EXTT17=
PLAYORDER=
